<svg width="122" height="129" viewBox="0 0 122 129" fill="none" xmlns="http://www.w3.org/2000/svg">
<rect x="0.000488281" y="85.2285" width="121.812" height="24.5" fill="#70AEFF"/>
<path d="M121.812 85.2285L0.000488281 85.2285L0.000489056 76.3613C0.000489539 70.8385 4.47764 66.3613 10.0005 66.3613L111.813 66.3613C117.335 66.3613 121.813 70.8385 121.813 76.3613L121.812 85.2285Z" fill="#2B8EE3"/>
<path d="M47.6318 10C47.6318 4.47715 52.109 0 57.6318 0H64.1807C69.7035 0 74.1807 4.47715 74.1807 10V66.3613H47.6318V10Z" fill="#CDD2D5"/>
<path d="M121.812 118.596C121.812 124.119 117.335 128.596 111.812 128.596H94.1895V122.773C94.1895 120.779 92.5724 119.162 90.5781 119.162C88.5836 119.162 86.9668 120.779 86.9668 122.773V128.596H64.5166V122.773C64.5166 120.779 62.8998 119.162 60.9053 119.162C58.9108 119.162 57.2939 120.779 57.2939 122.773V128.596H34.8438V122.773C34.8437 120.779 33.2269 119.162 31.2324 119.162C29.2379 119.162 27.6211 120.779 27.6211 122.773V128.596H10.001C4.47813 128.596 1.00664e-07 124.119 0 118.596V109.729H121.812V118.596Z" fill="#2B8EE3"/>
</svg>
