<svg width="31" height="30" viewBox="0 0 31 30" fill="none" xmlns="http://www.w3.org/2000/svg">
<path d="M21.9468 1.89821C22.0906 1.35181 22.7891 1.19207 23.156 1.62168L24.8255 3.57618C25.1672 3.97616 24.9621 4.59595 24.4493 4.71321L22.1258 5.24459C21.613 5.36186 21.1589 4.89281 21.2928 4.38409L21.9468 1.89821Z" fill="#FFB537"/>
<path d="M24.4189 3.51953C27.8621 3.51963 30.6533 6.31075 30.6533 9.75391C30.6533 12.5828 28.7684 14.9691 26.1865 15.7314C26.2353 16.0458 26.2607 16.3683 26.2607 16.6963C26.2605 20.1393 23.4695 22.9307 20.0264 22.9307C19.9646 22.9307 19.9031 22.9266 19.8418 22.9248C19.1683 25.6406 16.716 27.6542 13.792 27.6543C12.7771 27.6543 11.8195 27.4097 10.9727 26.9795C9.82917 28.3163 8.13148 29.165 6.23438 29.165C2.79132 29.1648 0 26.3738 0 22.9307C4.8186e-05 19.4876 2.79135 16.6965 6.23438 16.6963C7.24866 16.6963 8.20628 16.9394 9.05273 17.3691C10.1962 16.0325 11.8951 15.1846 13.792 15.1846C13.8534 15.1846 13.9146 15.1877 13.9756 15.1895C14.5078 13.0447 16.1502 11.3392 18.2578 10.7168C18.2092 10.403 18.1846 10.0813 18.1846 9.75391C18.1846 6.31069 20.9757 3.51953 24.4189 3.51953Z" fill="#19B06B"/>
<circle cx="27.441" cy="9.18707" r="1.27496" fill="black"/>
</svg>
